<svg width="50" height="50" viewBox="0 0 50 50" fill="none" xmlns="http://www.w3.org/2000/svg">
<path d="M40.2812 25.7C38.4712 30.89 33.3913 36.63 29.2812 40.7C30.612 42.2257 32.0418 43.6621 33.5613 45C33.8748 45.2804 34.2806 45.4354 34.7013 45.4354C35.1219 45.4354 35.5277 45.2804 35.8412 45C38.3312 42.79 44.0613 37.28 44.0613 33.23C44.0644 31.7666 43.724 30.3229 43.0675 29.0151C42.411 27.7072 41.4566 26.5718 40.2812 25.7V25.7Z" fill="#D15187"/>
<path d="M40.2798 25.7C38.8893 24.6629 37.2376 24.0331 35.5096 23.881C33.7816 23.7289 32.0453 24.0605 30.495 24.8388C28.9446 25.6171 27.6414 26.8113 26.731 28.2879C25.8206 29.7645 25.3389 31.4653 25.3398 33.2C25.3398 35.51 27.2098 38.3 29.2798 40.68C33.3898 36.63 38.4698 30.89 40.2798 25.7Z" fill="#A445BB"/>
<path d="M23.4614 4.58C21.1603 4.57868 18.8815 5.03095 16.7552 5.91095C14.629 6.79095 12.6971 8.08141 11.07 9.70855C9.44282 11.3357 8.15236 13.2676 7.27236 15.3938C6.39237 17.52 5.94009 19.7989 5.94141 22.1C5.94141 30.28 18.4714 41.68 22.3314 45C22.6439 45.2702 23.0433 45.4189 23.4564 45.4189C23.8696 45.4189 24.2689 45.2702 24.5814 45C25.6414 44.09 27.3514 42.57 29.2814 40.68C27.2114 38.3 25.3414 35.51 25.3414 33.2C25.3548 30.9091 26.2089 28.7028 27.7414 27C26.5885 28.1016 25.056 28.7174 23.4614 28.72C22.0033 28.7401 20.5826 28.2585 19.4373 27.356C18.2919 26.4534 17.4915 25.1847 17.1701 23.7623C16.8487 22.3399 17.0259 20.8503 17.6719 19.543C18.318 18.2357 19.3936 17.19 20.7187 16.5813C22.0438 15.9725 23.5378 15.8376 24.9506 16.1992C26.3633 16.5607 27.6088 17.3967 28.4786 18.5672C29.3484 19.7376 29.7895 21.1714 29.7281 22.6283C29.6667 24.0853 29.1065 25.4769 28.1414 26.57C29.7298 25.0001 31.8292 24.0527 34.0573 23.9004C36.2854 23.748 38.4941 24.4009 40.2814 25.74C40.7277 24.5767 40.9712 23.3456 41.0014 22.1C41.0027 19.7972 40.5498 17.5167 39.6685 15.3892C38.7873 13.2617 37.495 11.3289 35.8658 9.70147C34.2365 8.07406 32.3022 6.78402 30.1737 5.9052C28.0452 5.02638 25.7642 4.57605 23.4614 4.58V4.58Z" fill="#6F2CFF"/>
</svg>
