<svg width="50" height="50" viewBox="0 0 50 50" fill="none" xmlns="http://www.w3.org/2000/svg">
<path d="M24.9981 46.42C36.8281 46.42 46.4181 36.8299 46.4181 25C46.4181 13.17 36.8281 3.57999 24.9981 3.57999C13.1682 3.57999 3.57812 13.17 3.57812 25C3.57812 36.8299 13.1682 46.42 24.9981 46.42Z" fill="#6F2CFF"/>
<path d="M20.5383 23.59C22.2228 23.59 23.5883 22.2245 23.5883 20.54C23.5883 18.8555 22.2228 17.49 20.5383 17.49C18.8538 17.49 17.4883 18.8555 17.4883 20.54C17.4883 22.2245 18.8538 23.59 20.5383 23.59Z" fill="#D15187"/>
<path d="M29.4602 23.59C31.1446 23.59 32.5102 22.2245 32.5102 20.54C32.5102 18.8555 31.1446 17.49 29.4602 17.49C27.7757 17.49 26.4102 18.8555 26.4102 20.54C26.4102 22.2245 27.7757 23.59 29.4602 23.59Z" fill="#D15187"/>
<path d="M20.5383 32.51C22.2228 32.51 23.5883 31.1445 23.5883 29.46C23.5883 27.7755 22.2228 26.41 20.5383 26.41C18.8538 26.41 17.4883 27.7755 17.4883 29.46C17.4883 31.1445 18.8538 32.51 20.5383 32.51Z" fill="#D15187"/>
<path d="M29.4602 32.51C31.1446 32.51 32.5102 31.1445 32.5102 29.46C32.5102 27.7755 31.1446 26.41 29.4602 26.41C27.7757 26.41 26.4102 27.7755 26.4102 29.46C26.4102 31.1445 27.7757 32.51 29.4602 32.51Z" fill="#D15187"/>
</svg>
