<svg width="50" height="50" viewBox="0 0 50 50" fill="none" xmlns="http://www.w3.org/2000/svg">
<path d="M46.5691 9.05L26.0491 2.68C25.7825 2.59651 25.5021 2.56652 25.2239 2.59176C24.9457 2.617 24.6752 2.69697 24.428 2.82707C24.1809 2.95716 23.9618 3.13483 23.7835 3.34985C23.6052 3.56487 23.4712 3.813 23.3891 4.08L18.5391 19.66L24.9691 18.66C25.5273 18.5738 26.097 18.7129 26.5527 19.0467C27.0084 19.3806 27.3129 19.8817 27.3991 20.44L28.9991 30.54L38.9991 33.64C39.2663 33.7236 39.5474 33.7537 39.8263 33.7286C40.1052 33.7035 40.3764 33.6237 40.6244 33.4936C40.8723 33.3636 41.0923 33.1859 41.2715 32.9708C41.4508 32.7557 41.5859 32.5074 41.6691 32.24L47.9991 11.72C48.0835 11.4509 48.1134 11.1676 48.0869 10.8867C48.0605 10.6059 47.9783 10.3332 47.8451 10.0845C47.7119 9.83586 47.5305 9.61628 47.3114 9.43864C47.0922 9.261 46.8399 9.12887 46.5691 9.05V9.05Z" fill="#D15187"/>
<path d="M16.9984 24.6L18.5284 19.66L3.72838 22C3.19038 22.1003 2.71124 22.4029 2.38947 22.8455C2.06769 23.2882 1.92774 23.8373 1.99838 24.38L5.22838 45.62C5.31695 46.1764 5.62239 46.6751 6.07783 47.0069C6.53326 47.3386 7.10159 47.4764 7.65838 47.39L28.8984 44.12C29.4567 44.0338 29.9578 43.7293 30.2916 43.2736C30.6254 42.8179 30.7646 42.2483 30.6784 41.69L28.9984 30.54L18.4084 27.26C18.1405 27.1789 17.8913 27.0456 17.6752 26.8678C17.4591 26.6899 17.2803 26.471 17.1492 26.2237C17.0181 25.9765 16.9373 25.7056 16.9114 25.427C16.8855 25.1483 16.9151 24.8672 16.9984 24.6V24.6Z" fill="#6F2CFF"/>
<path d="M24.9993 18.67L18.5693 19.67L16.9993 24.6C16.9158 24.8666 16.8858 25.147 16.911 25.4252C16.9363 25.7034 17.0162 25.9738 17.1463 26.221C17.2764 26.4682 17.4541 26.6872 17.6691 26.8656C17.8841 27.0439 18.1323 27.1779 18.3993 27.26L28.9993 30.54L27.3993 20.45C27.3128 19.8977 27.0127 19.4016 26.5637 19.0686C26.1147 18.7356 25.5528 18.5924 24.9993 18.67Z" fill="#A445BB"/>
<path d="M32.4781 20.49C33.6655 20.49 34.6281 19.5274 34.6281 18.34C34.6281 17.1526 33.6655 16.19 32.4781 16.19C31.2907 16.19 30.3281 17.1526 30.3281 18.34C30.3281 19.5274 31.2907 20.49 32.4781 20.49Z" fill="white"/>
<path d="M28.2398 12.44C29.4273 12.44 30.3898 11.4774 30.3898 10.29C30.3898 9.10259 29.4273 8.14 28.2398 8.14C27.0524 8.14 26.0898 9.10259 26.0898 10.29C26.0898 11.4774 27.0524 12.44 28.2398 12.44Z" fill="white"/>
<path d="M40.5289 16.26C41.7163 16.26 42.6789 15.2974 42.6789 14.11C42.6789 12.9226 41.7163 11.96 40.5289 11.96C39.3415 11.96 38.3789 12.9226 38.3789 14.11C38.3789 15.2974 39.3415 16.26 40.5289 16.26Z" fill="white"/>
<path d="M24.4195 24.73C25.6069 24.73 26.5695 23.7674 26.5695 22.58C26.5695 21.3926 25.6069 20.43 24.4195 20.43C23.2321 20.43 22.2695 21.3926 22.2695 22.58C22.2695 23.7674 23.2321 24.73 24.4195 24.73Z" fill="white"/>
<path d="M36.7086 28.55C37.896 28.55 38.8586 27.5874 38.8586 26.4C38.8586 25.2126 37.896 24.25 36.7086 24.25C35.5212 24.25 34.5586 25.2126 34.5586 26.4C34.5586 27.5874 35.5212 28.55 36.7086 28.55Z" fill="white"/>
<path d="M16.3883 35.36C17.5757 35.36 18.5383 34.3974 18.5383 33.21C18.5383 32.0226 17.5757 31.06 16.3883 31.06C15.2009 31.06 14.2383 32.0226 14.2383 33.21C14.2383 34.3974 15.2009 35.36 16.3883 35.36Z" fill="white"/>
<path d="M9.04063 29.98C10.228 29.98 11.1906 29.0174 11.1906 27.83C11.1906 26.6426 10.228 25.68 9.04063 25.68C7.85321 25.68 6.89062 26.6426 6.89062 27.83C6.89062 29.0174 7.85321 29.98 9.04063 29.98Z" fill="white"/>
<path d="M23.7281 40.73C24.9155 40.73 25.8781 39.7674 25.8781 38.58C25.8781 37.3926 24.9155 36.43 23.7281 36.43C22.5407 36.43 21.5781 37.3926 21.5781 38.58C21.5781 39.7674 22.5407 40.73 23.7281 40.73Z" fill="white"/>
</svg>
