<svg width="50" height="50" viewBox="0 0 50 50" fill="none" xmlns="http://www.w3.org/2000/svg">
<path d="M25.0003 42.78C25.0503 40.26 25.5903 31.71 30.6603 24.78C30.9103 24.43 31.1703 24.1 31.4303 23.78C30.9303 14.1 25.0003 6.48001 25.0003 6.48001C25.0003 6.48001 19.0703 14.1 18.5703 23.74C18.8303 24.06 19.0903 24.39 19.3403 24.74C24.4103 31.71 25.0003 40.26 25.0003 42.78Z" fill="#6F2CFF"/>
<path d="M18.5707 23.74C12.5107 16.23 3.23068 13.55 3.23068 13.55C3.23068 13.55 2.87068 24.06 8.88068 32.34C14.8907 40.62 25.0007 43.52 25.0007 43.52C25.0007 43.52 18.5407 35.23 18.5407 25C18.5407 24.58 18.5507 24.16 18.5707 23.74Z" fill="#D15187"/>
<path d="M25.0004 42.78C24.9504 40.26 24.4104 31.71 19.3404 24.78C19.0904 24.43 18.8304 24.1 18.5704 23.78C18.5704 24.2 18.5704 24.62 18.5704 25.04C18.5404 35.23 25.0004 43.52 25.0004 43.52C25.0004 43.52 25.0004 43.26 25.0004 42.78Z" fill="#A445BB"/>
<path d="M46.77 13.55C46.77 13.55 37.49 16.23 31.43 23.74C31.43 24.16 31.43 24.58 31.43 25C31.46 35.23 25 43.52 25 43.52C25 43.52 35.1 40.61 41.12 32.34C47.14 24.07 46.77 13.55 46.77 13.55Z" fill="#D15187"/>
<path d="M31.43 23.74C31.17 24.06 30.91 24.39 30.66 24.74C25.59 31.74 25.05 40.26 25 42.74C25 43.22 25 43.48 25 43.48C25 43.48 31.46 35.23 31.46 25C31.46 24.58 31.45 24.16 31.43 23.74Z" fill="#A445BB"/>
</svg>
