<svg width="50" height="50" viewBox="0 0 50 50" fill="none" xmlns="http://www.w3.org/2000/svg">
<path d="M25 3.58C23.787 3.58081 22.5869 3.82902 21.4731 4.30944C20.3593 4.78986 19.3552 5.4924 18.5221 6.37411C17.6891 7.25581 17.0446 8.29816 16.6282 9.43742C16.2117 10.5767 16.032 11.7889 16.1 13L16.6 21.42H33.4L33.9 13C33.968 11.7889 33.7882 10.5767 33.3718 9.43742C32.9553 8.29816 32.3108 7.25581 31.4778 6.37411C30.6448 5.4924 29.6406 4.78986 28.5268 4.30944C27.413 3.82902 26.213 3.58081 25 3.58V3.58Z" stroke="#6F2CFF" stroke-width="2.14" stroke-miterlimit="10"/>
<path d="M41.6408 46.42H8.36076C8.135 46.4201 7.91152 46.3748 7.70368 46.2866C7.49585 46.1985 7.30791 46.0693 7.15109 45.9069C6.99428 45.7445 6.87181 45.5522 6.791 45.3413C6.71019 45.1305 6.6727 44.9056 6.68076 44.68L7.60076 21.76C7.62133 21.3284 7.80737 20.9214 8.12023 20.6234C8.43309 20.3255 8.84872 20.1595 9.28076 20.16H40.7208C41.1528 20.1595 41.5684 20.3255 41.8813 20.6234C42.1941 20.9214 42.3802 21.3284 42.4008 21.76L43.3208 44.68C43.3288 44.9056 43.2913 45.1305 43.2105 45.3413C43.1297 45.5522 43.0072 45.7445 42.8504 45.9069C42.6936 46.0693 42.5057 46.1985 42.2978 46.2866C42.09 46.3748 41.8665 46.4201 41.6408 46.42V46.42Z" fill="#6F2CFF"/>
<path d="M42.4 21.76L42.5 24.36H39.18V28.56H10.82V24.36H7.5L7.6 21.76C7.62057 21.3284 7.80661 20.9214 8.11947 20.6234C8.43233 20.3255 8.84796 20.1595 9.28 20.16H40.72C41.152 20.1595 41.5677 20.3255 41.8805 20.6234C42.1934 20.9214 42.3794 21.3284 42.4 21.76V21.76Z" fill="#D15187"/>
<path d="M39.1903 28.56H10.8203V33.81H39.1903V28.56Z" fill="#A445BB"/>
<path d="M27.6311 33.81C27.6331 34.3306 27.4805 34.8401 27.1927 35.2739C26.9049 35.7077 26.4949 36.0463 26.0145 36.2469C25.5341 36.4475 25.005 36.501 24.4941 36.4007C23.9833 36.3003 23.5138 36.0506 23.1449 35.6832C22.7761 35.3158 22.5247 34.8472 22.4224 34.3368C22.3201 33.8263 22.3716 33.297 22.5703 32.8159C22.7691 32.3347 23.1062 31.9234 23.5389 31.6339C23.9716 31.3445 24.4805 31.19 25.0011 31.19C25.6969 31.19 26.3643 31.4657 26.8572 31.9568C27.3502 32.4478 27.6284 33.1142 27.6311 33.81V33.81Z" fill="#D15187"/>
</svg>
