<svg width="50" height="50" viewBox="0 0 50 50" fill="none" xmlns="http://www.w3.org/2000/svg">
<path d="M40.9089 30.23C41.6833 30.23 42.426 29.9224 42.9737 29.3747C43.5213 28.8271 43.8289 28.0844 43.8289 27.31C43.8271 27.0284 43.7833 26.7487 43.6989 26.48L38.1289 28.15C38.3058 28.7502 38.6722 29.2771 39.1732 29.652C39.6743 30.0269 40.2831 30.2296 40.9089 30.23V30.23Z" fill="#D15187"/>
<path d="M40.91 24.39C40.1373 24.3926 39.3972 24.7015 38.8517 25.2488C38.3063 25.7961 38 26.5373 38 27.31C38.0065 27.5952 38.0536 27.8781 38.14 28.15L43.71 26.48C43.531 25.8763 43.1617 25.3466 42.6571 24.97C42.1525 24.5933 41.5397 24.3899 40.91 24.39V24.39Z" fill="#A445BB"/>
<path d="M6.17188 27.31C6.17116 28.0096 6.42254 28.6861 6.87996 29.2155C7.33738 29.7449 7.97022 30.0918 8.66256 30.1926C9.3549 30.2934 10.0604 30.1414 10.6498 29.7644C11.2392 29.3875 11.673 28.8108 11.8719 28.14L6.30188 26.48C6.21749 26.7487 6.17367 27.0284 6.17188 27.31V27.31Z" fill="#D15187"/>
<path d="M9.09078 24.39C8.46283 24.3921 7.85226 24.5965 7.34968 24.973C6.8471 25.3495 6.47927 25.8779 6.30078 26.48L11.8708 28.14C11.9586 27.8719 12.0057 27.5921 12.0108 27.31C12.0108 26.9265 11.9353 26.5468 11.7885 26.1926C11.6418 25.8383 11.4267 25.5164 11.1555 25.2452C10.8844 24.9741 10.5625 24.759 10.2082 24.6123C9.85395 24.4655 9.47424 24.39 9.09078 24.39V24.39Z" fill="#A445BB"/>
<path d="M25.0002 35.27C29.8824 35.27 33.8402 31.3122 33.8402 26.43C33.8402 21.5478 29.8824 17.59 25.0002 17.59C20.118 17.59 16.1602 21.5478 16.1602 26.43C16.1602 31.3122 20.118 35.27 25.0002 35.27Z" fill="#A445BB"/>
<path d="M48.88 22.89H33.1C32.472 21.4511 31.4722 20.2054 30.2033 19.2809C28.9344 18.3565 27.4421 17.7866 25.88 17.63V11.63C25.8813 11.5162 25.8601 11.4033 25.8174 11.2978C25.7748 11.1923 25.7117 11.0963 25.6317 11.0154C25.5517 10.9345 25.4564 10.8703 25.3514 10.8264C25.2464 10.7826 25.1338 10.76 25.02 10.76C24.9062 10.76 24.7936 10.7826 24.6886 10.8264C24.5836 10.8703 24.4883 10.9345 24.4083 11.0154C24.3283 11.0963 24.2652 11.1923 24.2226 11.2978C24.1799 11.4033 24.1587 11.5162 24.16 11.63V17.63C22.5979 17.7866 21.1056 18.3565 19.8367 19.2809C18.5678 20.2054 17.568 21.4511 16.94 22.89H1.12C0.889262 22.89 0.667974 22.9817 0.504817 23.1448C0.34166 23.308 0.25 23.5293 0.25 23.76V24C0.250152 24.1879 0.310416 24.3707 0.421975 24.5219C0.533533 24.673 0.690531 24.7845 0.87 24.84L6.3 26.48C6.49202 25.8008 6.92438 25.2145 7.51655 24.8303C8.10872 24.4462 8.82033 24.2904 9.51885 24.3919C10.2174 24.4934 10.8552 24.8454 11.3135 25.3822C11.7718 25.9191 12.0193 26.6042 12.01 27.31C12.005 27.5921 11.9578 27.8719 11.87 28.14L16.76 29.61V29.4C18.04 32.21 21.24 33.5 24.99 33.5C28.74 33.5 31.99 32.2 33.23 29.38V29.61L38.11 28.15C38.0236 27.8781 37.9765 27.5952 37.97 27.31C37.9607 26.6042 38.2082 25.9191 38.6665 25.3822C39.1248 24.8454 39.7626 24.4934 40.4612 24.3919C41.1597 24.2904 41.8713 24.4462 42.4635 24.8303C43.0556 25.2145 43.488 25.8008 43.68 26.48L49.11 24.85C49.2895 24.7945 49.4465 24.683 49.558 24.5319C49.6696 24.3807 49.7298 24.1979 49.73 24.01V23.76C49.7301 23.5327 49.6412 23.3144 49.4823 23.1518C49.3234 22.9892 49.1073 22.8952 48.88 22.89Z" fill="#6F2CFF"/>
<path d="M30.2992 22.01V22.89L24.9992 24.66L19.6992 22.89V22.01H30.2992Z" fill="white"/>
</svg>
